<?xml version="1.0" encoding="UTF-8" standalone="no"?>
<!DOCTYPE svg PUBLIC "-//W3C//DTD SVG 1.1//EN" "http://www.w3.org/Graphics/SVG/1.1/DTD/svg11.dtd">
<svg version="1.1" xmlns="http://www.w3.org/2000/svg" xmlns:xlink="http://www.w3.org/1999/xlink" preserveAspectRatio="xMidYMid meet" viewBox="0 0 640 640" width="640" height="640"><defs><path d="M448.6 23.68L410.99 23.68L450.11 66.16L450.11 86.36L369.51 86.36L369.51 62.7L408.63 62.7L369.51 20.23L369.51 0L448.62 0L448.6 23.68ZM353.51 23.68L315.85 23.68L355.02 66.16L355.02 86.36L274.4 86.36L274.4 62.7L313.52 62.7L274.4 20.23L274.4 0L353.51 0L353.51 23.68ZM259.35 24.65L218.77 24.65L218.77 61.73L259.35 61.73L259.35 86.38L189.89 86.38L189.89 0L259.35 0L259.35 24.65Z" id="a1MOrmVfeH"></path><path d="M134.56 588.62L93.29 125.81L546.71 125.81L505.38 588.54L319.72 640L134.56 588.62Z" id="aytULyGu4"></path><path d="M320 331.32L395.12 331.32L400.29 273.2L320 273.2L320 216.47L462.35 216.47L460.99 231.7L447.04 388.13L320 388.13L320 331.32Z" id="cBnIvGPuo"></path><path d="M320.97 478.68L320.72 478.68L257.51 461.6L253.46 416.34L196.52 416.34L204.48 505.46L320.77 537.82L321.1 537.82L321.1 478.68L320.97 478.68Z" id="a1jENmXWcP"></path><path d="M383.47 461.6L320.15 478.68L320.15 537.82L436.51 505.56L437.36 495.96L447.24 385.62L390.3 385.62L383.47 461.6Z" id="arjvMC9VG"></path><path d="M320.2 216.47L320.2 273.23L183.13 273.23L181.95 260.48L179.37 231.7L178.01 216.47L320.2 216.47ZM320 388.08L257.51 388.08L256.4 375.33L253.82 346.55L252.46 331.32L319.97 331.32L320 388.08Z" id="f2jnwwqlPX"></path></defs><g><g><g><use xlink:href="#a1MOrmVfeH" opacity="1" fill="#ecb624" fill-opacity="1"></use><g><use xlink:href="#a1MOrmVfeH" opacity="1" fill-opacity="0" stroke="#000000" stroke-width="1" stroke-opacity="0"></use></g></g><g><use xlink:href="#aytULyGu4" opacity="1" fill="#ecb624" fill-opacity="1"></use><g><use xlink:href="#aytULyGu4" opacity="1" fill-opacity="0" stroke="#000000" stroke-width="1" stroke-opacity="0"></use></g></g><g><use xlink:href="#cBnIvGPuo" opacity="1" fill="#252527" fill-opacity="1"></use><g><use xlink:href="#cBnIvGPuo" opacity="1" fill-opacity="0" stroke="#000000" stroke-width="1" stroke-opacity="0"></use></g></g><g><use xlink:href="#a1jENmXWcP" opacity="1" fill="#252527" fill-opacity="1"></use><g><use xlink:href="#a1jENmXWcP" opacity="1" fill-opacity="0" stroke="#000000" stroke-width="1" stroke-opacity="0"></use></g></g><g><use xlink:href="#arjvMC9VG" opacity="1" fill="#252527" fill-opacity="1"></use><g><use xlink:href="#arjvMC9VG" opacity="1" fill-opacity="0" stroke="#000000" stroke-width="1" stroke-opacity="0"></use></g></g><g><use xlink:href="#f2jnwwqlPX" opacity="1" fill="#252527" fill-opacity="1"></use><g><use xlink:href="#f2jnwwqlPX" opacity="1" fill-opacity="0" stroke="#000000" stroke-width="1" stroke-opacity="0"></use></g></g></g></g></svg>