<?xml version="1.0" encoding="UTF-8" standalone="no"?>
<!DOCTYPE svg PUBLIC "-//W3C//DTD SVG 1.1//EN" "http://www.w3.org/Graphics/SVG/1.1/DTD/svg11.dtd">
<svg version="1.1" xmlns="http://www.w3.org/2000/svg" xmlns:xlink="http://www.w3.org/1999/xlink" preserveAspectRatio="xMidYMid meet" viewBox="0 0 640 640" width="640" height="640"><defs><path d="M69.47 322.23C69.47 433.4 142.82 527.67 244.51 560.91C257.31 563.27 262.01 555.49 262.01 548.81C262.01 542.84 261.79 527.01 261.69 506.04C190.48 521.21 175.46 472.29 175.46 472.29C163.81 443.25 146.98 435.49 146.98 435.49C123.79 419.89 148.77 420.21 148.77 420.21C174.48 421.96 187.98 446.13 187.98 446.13C210.81 484.6 247.91 473.48 262.54 467.06C264.84 450.78 271.44 439.71 278.75 433.42C221.9 427.13 162.15 405.49 162.15 309.11C162.15 281.65 172.07 259.21 188.49 241.61C185.61 235.25 176.97 209.67 190.73 175.03C190.73 175.03 212.17 168.29 261.13 200.82C281.61 195.23 303.37 192.46 325.13 192.33C346.89 192.46 368.65 195.23 389.13 200.82C437.77 168.29 459.21 175.03 459.21 175.03C472.97 209.67 464.33 235.25 461.77 241.61C478.09 259.21 488.01 281.65 488.01 309.11C488.01 405.75 428.17 427.02 371.21 433.21C380.17 440.76 388.49 456.18 388.49 479.75C388.49 513.42 388.17 540.47 388.17 548.64C388.17 555.23 392.65 563.1 405.77 560.59C508.19 527.56 581.47 433.23 581.47 322.23C581.47 183.31 466.85 70.67 325.47 70.67C184.03 70.67 69.47 183.31 69.47 322.23Z" id="g1omMaHfV"></path></defs><g><g><g><use xlink:href="#g1omMaHfV" opacity="1" fill="#ecb624" fill-opacity="1"></use><g><use xlink:href="#g1omMaHfV" opacity="1" fill-opacity="0" stroke="#000000" stroke-width="1" stroke-opacity="0"></use></g></g></g></g></svg>