<?xml version="1.0" encoding="UTF-8" standalone="no"?>
<!DOCTYPE svg PUBLIC "-//W3C//DTD SVG 1.1//EN" "http://www.w3.org/Graphics/SVG/1.1/DTD/svg11.dtd">
<svg version="1.1" xmlns="http://www.w3.org/2000/svg" xmlns:xlink="http://www.w3.org/1999/xlink" preserveAspectRatio="xMidYMid meet" viewBox="0 0 640 640" width="640" height="640"><defs><path d="M563.05 125.86L519.48 588.53L323.66 640L128.37 588.61L84.85 125.86L563.05 125.86Z" id="hA4dTnZe0"></path><path d="M563.05 125.86L519.48 588.53L323.66 640L128.37 588.61L84.85 125.86L563.05 125.86Z" id="gJSlfBsMl"></path><path d="M563.05 125.86L519.48 588.53L323.66 640L128.37 588.61L84.85 125.86L563.05 125.86Z" id="a28ZPPwUMn"></path><path d="M563.05 125.86L519.48 588.53L323.66 640L128.37 588.61L84.85 125.86L563.05 125.86Z" id="b6YrEr199r"></path><path d="M241.76 277.24L326.45 277.24L326.45 220.48L176.33 220.48L177.77 235.71L192.48 392.11L326.45 392.11L326.45 335.35L247.23 335.35L241.76 277.24ZM259.51 465.75L255.25 420.48L195.15 420.48L203.54 509.6L326.17 541.87L326.45 541.8L326.45 482.75L326.19 482.81L259.51 465.75Z" id="bIwPMgHoU"></path><path d="M187.59 28.61L187.59 0.11L218.02 0.11L218.02 86.4L187.59 86.4L187.59 57.51L159.76 57.51L159.76 86.4L129.34 86.4L129.34 0.11L129.34 0.11L159.76 0.11L159.76 28.61L187.59 28.61ZM315.25 0.11L315.25 28.73L288.45 28.73L288.45 86.4L258.03 86.4L258.02 28.73L231.24 28.73L231.24 0.11L315.25 0.11ZM399.31 0.11L431.04 0.11L431.04 86.4L400.74 86.4L400.74 43.63L379.81 74.31L379.29 74.31L358.34 43.63L358.34 86.4L328.58 86.4L328.58 0.11L360.3 0.11L379.81 30.43L399.31 0.11ZM519.4 57.88L519.4 86.4L446.18 86.4L446.18 0.11L476.62 0.11L476.62 57.88L519.4 57.88Z" id="a117teXlq"></path><path d="M187.59 28.61L187.59 0.11L218.02 0.11L218.02 86.4L187.59 86.4L187.59 57.51L159.76 57.51L159.76 86.4L129.34 86.4L129.34 0.11L129.34 0.11L159.76 0.11L159.76 28.61L187.59 28.61ZM315.25 0.11L315.25 28.73L288.45 28.73L288.45 86.4L258.03 86.4L258.02 28.73L231.24 28.73L231.24 0.11L315.25 0.11ZM399.31 0.11L431.04 0.11L431.04 86.4L400.74 86.4L400.74 43.63L379.81 74.31L379.29 74.31L358.34 43.63L358.34 86.4L328.58 86.4L328.58 0.11L360.3 0.11L379.81 30.43L399.31 0.11ZM519.4 57.88L519.4 86.4L446.18 86.4L446.18 0.11L476.62 0.11L476.62 57.88L519.4 57.88Z" id="kb0OH3clRy"></path><path d="M187.59 28.61L187.59 0.11L218.02 0.11L218.02 86.4L187.59 86.4L187.59 57.51L159.76 57.51L159.76 86.4L129.34 86.4L129.34 0.11L129.34 0.11L159.76 0.11L159.76 28.61L187.59 28.61ZM315.25 0.11L315.25 28.73L288.45 28.73L288.45 86.4L258.03 86.4L258.02 28.73L231.24 28.73L231.24 0.11L315.25 0.11ZM399.31 0.11L431.04 0.11L431.04 86.4L400.74 86.4L400.74 43.63L379.81 74.31L379.29 74.31L358.34 43.63L358.34 86.4L328.58 86.4L328.58 0.11L360.3 0.11L379.81 30.43L399.31 0.11ZM519.4 57.88L519.4 86.4L446.18 86.4L446.18 0.11L476.62 0.11L476.62 57.88L519.4 57.88Z" id="btk4pTCJV"></path><path d="M187.59 28.61L187.59 0.11L218.02 0.11L218.02 86.4L187.59 86.4L187.59 57.51L159.76 57.51L159.76 86.4L129.34 86.4L129.34 0.11L129.34 0.11L159.76 0.11L159.76 28.61L187.59 28.61ZM315.25 0.11L315.25 28.73L288.45 28.73L288.45 86.4L258.03 86.4L258.02 28.73L231.24 28.73L231.24 0.11L315.25 0.11ZM399.31 0.11L431.04 0.11L431.04 86.4L400.74 86.4L400.74 43.63L379.81 74.31L379.29 74.31L358.34 43.63L358.34 86.4L328.58 86.4L328.58 0.11L360.3 0.11L379.81 30.43L399.31 0.11ZM519.4 57.88L519.4 86.4L446.18 86.4L446.18 0.11L476.62 0.11L476.62 57.88L519.4 57.88Z" id="c1qm0JtHtf"></path><path d="M395.76 392.11L388.81 465.71L322.04 482.8L322.04 541.84L444.77 509.6L445.67 500.01L459.74 350.59L461.2 335.35L445.07 335.35L322.04 335.35L322.04 392.11L395.76 392.11ZM466.65 277.24L467.85 264.48L470.57 235.71L472.01 220.48L322.04 220.48L322.04 277.24L466.65 277.24Z" id="e8TMuCuEs"></path></defs><g><g><g><use xlink:href="#hA4dTnZe0" opacity="1" fill="#ecb624" fill-opacity="1"></use><g><use xlink:href="#hA4dTnZe0" opacity="1" fill-opacity="0" stroke="#000000" stroke-width="1" stroke-opacity="0"></use></g></g><g><use xlink:href="#gJSlfBsMl" opacity="1" fill="#000000" fill-opacity="0"></use><g><use xlink:href="#gJSlfBsMl" opacity="1" fill-opacity="0" stroke="#000000" stroke-width="1" stroke-opacity="0"></use></g></g><g><use xlink:href="#a28ZPPwUMn" opacity="1" fill="#000000" fill-opacity="0"></use><g><use xlink:href="#a28ZPPwUMn" opacity="1" fill-opacity="0" stroke="#000000" stroke-width="1" stroke-opacity="0"></use></g></g><g><use xlink:href="#b6YrEr199r" opacity="1" fill="#000000" fill-opacity="0"></use><g><use xlink:href="#b6YrEr199r" opacity="1" fill-opacity="0" stroke="#000000" stroke-width="1" stroke-opacity="0"></use></g></g><g><use xlink:href="#bIwPMgHoU" opacity="1" fill="#252527" fill-opacity="1"></use><g><use xlink:href="#bIwPMgHoU" opacity="1" fill-opacity="0" stroke="#000000" stroke-width="1" stroke-opacity="0"></use></g></g><g><use xlink:href="#a117teXlq" opacity="1" fill="#ecb624" fill-opacity="1"></use><g><use xlink:href="#a117teXlq" opacity="1" fill-opacity="0" stroke="#000000" stroke-width="1" stroke-opacity="0"></use></g></g><g><use xlink:href="#kb0OH3clRy" opacity="1" fill="#000000" fill-opacity="0"></use><g><use xlink:href="#kb0OH3clRy" opacity="1" fill-opacity="0" stroke="#000000" stroke-width="1" stroke-opacity="0"></use></g></g><g><use xlink:href="#btk4pTCJV" opacity="1" fill="#000000" fill-opacity="0"></use><g><use xlink:href="#btk4pTCJV" opacity="1" fill-opacity="0" stroke="#000000" stroke-width="1" stroke-opacity="0"></use></g></g><g><use xlink:href="#c1qm0JtHtf" opacity="1" fill="#000000" fill-opacity="0"></use><g><use xlink:href="#c1qm0JtHtf" opacity="1" fill-opacity="0" stroke="#000000" stroke-width="1" stroke-opacity="0"></use></g></g><g><use xlink:href="#e8TMuCuEs" opacity="1" fill="#252527" fill-opacity="1"></use><g><use xlink:href="#e8TMuCuEs" opacity="1" fill-opacity="0" stroke="#000000" stroke-width="1" stroke-opacity="0"></use></g></g></g></g></svg>