<?xml version="1.0" encoding="UTF-8" standalone="no"?>
<!DOCTYPE svg PUBLIC "-//W3C//DTD SVG 1.1//EN" "http://www.w3.org/Graphics/SVG/1.1/DTD/svg11.dtd">
<svg version="1.1" xmlns="http://www.w3.org/2000/svg" xmlns:xlink="http://www.w3.org/1999/xlink" preserveAspectRatio="xMidYMid meet" viewBox="0 0 640 640" width="640" height="640"><defs><path d="M190.07 603.2C190.07 600.34 190.07 577.47 190.07 574.6C184.06 574.6 179.24 573.45 175.2 571.27C157.46 561.27 149.76 523.19 155.76 474.2C157.19 462.15 159.55 449.45 162.41 436.5C187.98 442.65 215.9 447.41 245.25 450.48C262.86 474.2 281.13 495.74 299.52 514.6C256.99 553.45 217.07 574.73 189.94 574.73C189.94 577.6 189.94 600.47 189.94 603.33C225.81 603.33 272.78 578.2 320.26 534.6C367.74 577.94 414.71 602.82 450.58 602.82C450.58 599.96 450.58 577.08 450.58 574.23C423.58 574.23 383.53 553.06 341 514.47C359.27 495.61 377.53 474.2 394.88 450.48C424.36 447.41 452.28 442.65 477.84 436.37C480.85 449.19 483.06 461.63 484.63 473.56C490.76 522.55 483.2 560.64 465.59 570.76C461.68 573.07 456.59 574.1 450.58 574.1C450.58 576.95 450.58 599.83 450.58 602.7C461.54 602.7 471.45 600.39 480.07 595.51C516.73 574.73 524.94 509.98 506.02 428.68C587.17 404.05 640 364.69 640 323.14C640 281.47 586.91 241.97 505.5 217.48C524.29 135.92 515.94 71.04 479.15 50.26C470.68 45.39 460.76 43.08 449.8 43.08C413.92 43.08 366.97 68.21 319.48 111.81C271.99 68.47 225.03 43.6 189.15 43.6C178.2 43.6 168.28 45.9 159.68 50.77C123.02 71.55 114.8 136.3 133.71 217.6C52.83 242.1 0 281.59 0 323.14C0 364.82 53.09 404.31 134.5 428.81C115.71 510.37 124.06 575.25 160.85 596.03C169.32 600.89 179.24 603.2 190.07 603.2ZM223.33 418.81C204.81 416.11 186.94 412.78 169.85 408.67C174.68 392.14 180.68 375.08 187.46 358.02C192.81 368.28 198.42 378.54 204.55 388.8C210.55 399.06 216.94 409.06 223.33 418.81ZM378.7 222.99C389.53 238.25 400.1 254.53 410.27 271.72C420.18 288.52 429.18 305.58 437.41 322.76C429.32 339.94 420.18 357.12 410.41 373.92C400.23 391.24 389.79 407.65 378.97 422.91C359.52 424.58 339.83 425.48 320 425.48C300.3 425.48 280.61 424.58 261.3 423.04C250.47 407.78 239.9 391.48 229.73 374.3C219.82 357.51 210.82 340.45 202.59 323.27C210.82 306.09 219.82 288.9 229.59 272.1C239.77 254.79 250.21 238.38 261.03 223.12C280.48 221.45 300.17 220.56 320 220.56C339.7 220.56 359.39 221.45 378.7 222.99ZM204.42 257.87C198.42 268.13 192.81 278.51 187.46 288.77C180.41 271.59 174.41 254.4 169.46 237.74C186.55 233.63 204.55 230.16 223.2 227.48C216.81 237.35 210.42 247.48 204.42 257.87ZM283.86 192.99C295.6 177.98 307.74 164.26 319.74 151.95C331.87 164.26 344 177.98 356.01 192.99C344.26 192.46 332.26 192.09 320.13 192.09C307.87 192.09 295.74 192.34 283.86 192.99ZM435.58 257.49C429.45 247.23 423.19 237.23 416.8 227.48C435.32 230.16 453.19 233.51 470.28 237.61C465.46 254.14 459.45 271.21 452.67 288.27C447.32 278.01 441.71 267.74 435.58 257.49ZM356.26 453.29C344.53 468.3 332.4 482.02 320.39 494.34C308.26 482.02 296.12 468.3 284.13 453.29C295.87 453.81 307.87 454.2 320 454.2C332.26 454.2 344.4 453.94 356.26 453.29ZM470.68 408.67C453.58 412.65 435.58 416.11 416.93 418.81C423.32 408.93 429.71 398.8 435.71 388.41C441.71 378.15 447.32 367.9 452.67 357.64C459.72 374.82 465.71 392 470.68 408.67ZM498.85 400.98C491.41 375.84 481.63 349.68 469.49 322.88C481.5 296.21 491.16 270.17 498.46 245.17C511.37 249.15 523.64 253.51 534.98 258.26C581.17 277.62 611.04 303.01 611.04 323.14C611.04 343.28 581.17 368.79 534.98 388.03C523.77 392.77 511.51 397.01 498.85 400.98ZM394.75 195.8C377.14 172.08 358.87 150.53 340.48 131.69C383.01 92.82 422.93 71.55 450.06 71.55C455.94 71.68 460.89 72.83 464.8 75.01C482.54 85.01 490.24 123.1 484.24 172.08C482.81 184.14 480.45 196.83 477.59 209.78C452.02 203.63 424.1 198.88 394.75 195.8ZM299 131.94C280.73 150.8 262.47 172.21 245.12 195.93C215.64 199.01 187.72 203.76 162.16 210.04C159.15 197.08 156.8 184.65 155.37 172.72C149.24 123.73 156.8 85.65 174.41 75.53C178.32 73.21 183.41 72.19 189.42 72.19C216.42 72.19 256.47 93.35 299 131.94ZM141.68 401.11C128.76 397.13 116.49 392.77 105.02 388.03C58.83 368.66 28.96 343.28 28.96 323.14C29.1 303.01 58.97 277.49 105.15 258.26C116.36 253.51 128.63 249.28 141.28 245.3C148.72 270.44 158.5 296.59 170.63 323.4C158.63 350.08 148.97 376.1 141.68 401.11Z" id="bL920YA0I"></path><path d="M190.07 603.2C190.07 600.29 190.07 577.03 190.07 574.12C184.06 574.12 179.24 572.95 175.2 570.73C157.46 560.56 149.76 521.84 155.76 472.02C157.19 459.77 159.55 446.85 162.41 433.69C187.98 439.94 215.9 444.78 245.25 447.9C262.86 472.02 281.13 493.93 299.52 513.1C256.99 552.61 217.07 574.25 189.94 574.25C189.94 577.16 189.94 600.42 189.94 603.33C225.81 603.33 272.78 577.78 320.26 533.44C367.74 577.52 414.71 602.81 450.58 602.81C450.58 599.91 450.58 576.64 450.58 573.74C423.58 573.74 383.53 552.21 341 512.97C359.27 493.8 377.53 472.02 394.88 447.9C424.36 444.78 452.28 439.94 477.84 433.56C480.85 446.59 483.06 459.24 484.63 471.37C490.76 521.19 483.2 559.92 465.59 570.21C461.68 572.56 456.59 573.61 450.58 573.61C450.58 576.51 450.58 599.77 450.58 602.69C461.54 602.69 471.45 600.34 480.07 595.38C516.73 574.25 524.94 508.41 506.02 425.74C587.17 400.7 640 360.67 640 318.42C640 276.04 586.91 235.88 505.5 210.97C524.29 128.04 515.94 62.06 479.15 40.94C470.68 35.99 460.76 33.64 449.8 33.64C413.92 33.64 366.97 59.19 319.48 103.52C271.99 59.45 225.03 34.16 189.15 34.16C178.2 34.16 168.28 36.5 159.68 41.46C123.02 62.59 114.8 128.43 133.71 211.1C52.83 236.01 0 276.17 0 318.42C0 360.8 53.09 400.96 134.5 425.87C115.71 508.8 124.06 574.77 160.85 595.9C169.32 600.85 179.24 603.2 190.07 603.2ZM223.33 415.7C204.81 412.95 186.94 409.57 169.85 405.39C174.68 388.58 180.68 371.23 187.46 353.88C192.81 364.32 198.42 374.75 204.55 385.18C210.55 395.62 216.94 405.79 223.33 415.7ZM378.7 216.58C389.53 232.1 400.1 248.65 410.27 266.13C420.18 283.22 429.18 300.56 437.41 318.03C429.32 335.51 420.18 352.98 410.41 370.05C400.23 387.66 389.79 404.35 378.97 419.87C359.52 421.56 339.83 422.48 320 422.48C300.3 422.48 280.61 421.56 261.3 420C250.47 404.49 239.9 387.91 229.73 370.44C219.82 353.37 210.82 336.02 202.59 318.55C210.82 301.08 219.82 283.6 229.59 266.52C239.77 248.91 250.21 232.23 261.03 216.71C280.48 215.01 300.17 214.11 320 214.11C339.7 214.11 359.39 215.01 378.7 216.58ZM204.42 252.05C198.42 262.48 192.81 273.04 187.46 283.47C180.41 266 174.41 248.52 169.46 231.58C186.55 227.4 204.55 223.87 223.2 221.14C216.81 231.18 210.42 241.49 204.42 252.05ZM283.86 186.07C295.6 170.81 307.74 156.86 319.74 144.34C331.87 156.86 344 170.81 356.01 186.07C344.26 185.54 332.26 185.16 320.13 185.16C307.87 185.16 295.74 185.41 283.86 186.07ZM435.58 251.66C429.45 241.22 423.19 231.06 416.8 221.14C435.32 223.87 453.19 227.27 470.28 231.45C465.46 248.26 459.45 265.61 452.67 282.96C447.32 272.52 441.71 262.08 435.58 251.66ZM356.26 450.77C344.53 466.03 332.4 479.98 320.39 492.5C308.26 479.98 296.12 466.03 284.13 450.77C295.87 451.29 307.87 451.68 320 451.68C332.26 451.68 344.4 451.42 356.26 450.77ZM470.68 405.39C453.58 409.44 435.58 412.95 416.93 415.7C423.32 405.66 429.71 395.35 435.71 384.79C441.71 374.36 447.32 363.93 452.67 353.5C459.72 370.97 465.71 388.44 470.68 405.39ZM498.85 397.57C491.41 372.01 481.63 345.4 469.49 318.16C481.5 291.03 491.16 264.56 498.46 239.14C511.37 243.18 523.64 247.61 534.98 252.44C581.17 272.13 611.04 297.95 611.04 318.42C611.04 338.89 581.17 364.84 534.98 384.41C523.77 389.22 511.51 393.53 498.85 397.57ZM394.75 188.94C377.14 164.81 358.87 142.9 340.48 123.74C383.01 84.22 422.93 62.59 450.06 62.59C455.94 62.72 460.89 63.89 464.8 66.11C482.54 76.28 490.24 115.01 484.24 164.81C482.81 177.07 480.45 189.97 477.59 203.15C452.02 196.89 424.1 192.06 394.75 188.94ZM299 124C280.73 143.17 262.47 164.94 245.12 189.07C215.64 192.19 187.72 197.02 162.16 203.41C159.15 190.24 156.8 177.6 155.37 165.46C149.24 115.65 156.8 76.92 174.41 66.63C178.32 64.27 183.41 63.23 189.42 63.23C216.42 63.23 256.47 84.75 299 124ZM141.68 397.7C128.76 393.66 116.49 389.22 105.02 384.41C58.83 364.71 28.96 338.89 28.96 318.42C29.1 297.95 58.97 272 105.15 252.44C116.36 247.61 128.63 243.31 141.28 239.27C148.72 264.83 158.5 291.42 170.63 318.68C158.63 345.81 148.97 372.27 141.68 397.7Z" id="a46z6U7lpn"></path><path d="M320 390.6C353.44 390.6 380.55 360.43 380.55 323.2C380.55 285.98 353.44 255.8 320 255.8C286.56 255.8 259.45 285.98 259.45 323.2C259.45 360.43 286.56 390.6 320 390.6Z" id="a5ZqdcVRO"></path><path d="M320 390.6C353.44 390.6 380.55 360.43 380.55 323.2C380.55 285.98 353.44 255.8 320 255.8C286.56 255.8 259.45 285.98 259.45 323.2C259.45 360.43 286.56 390.6 320 390.6Z" id="hnNbT2wvZ"></path></defs><g><g><g><use xlink:href="#bL920YA0I" opacity="1" fill="#ecb624" fill-opacity="1"></use><g><use xlink:href="#bL920YA0I" opacity="1" fill-opacity="0" stroke="#000000" stroke-width="1" stroke-opacity="0"></use></g></g><g><use xlink:href="#a46z6U7lpn" opacity="1" fill="#000000" fill-opacity="0"></use><g><use xlink:href="#a46z6U7lpn" opacity="1" fill-opacity="0" stroke="#000000" stroke-width="1" stroke-opacity="0"></use></g></g><g><use xlink:href="#a5ZqdcVRO" opacity="1" fill="#ecb624" fill-opacity="1"></use><g><use xlink:href="#a5ZqdcVRO" opacity="1" fill-opacity="0" stroke="#000000" stroke-width="1" stroke-opacity="0"></use></g></g><g><use xlink:href="#hnNbT2wvZ" opacity="1" fill="#000000" fill-opacity="0"></use><g><use xlink:href="#hnNbT2wvZ" opacity="1" fill-opacity="0" stroke="#000000" stroke-width="1" stroke-opacity="0"></use></g></g></g></g></svg>