<?xml version="1.0" encoding="UTF-8" standalone="no"?>
<!DOCTYPE svg PUBLIC "-//W3C//DTD SVG 1.1//EN" "http://www.w3.org/Graphics/SVG/1.1/DTD/svg11.dtd">
<svg version="1.1" xmlns="http://www.w3.org/2000/svg" xmlns:xlink="http://www.w3.org/1999/xlink" preserveAspectRatio="xMidYMid meet" viewBox="0 0 640 640" width="640" height="640"><defs><path d="M230.77 476.35C227.93 467.22 213.72 421.57 188.14 339.4L452.89 178.41L483.92 186.43L458.12 254.9L247.97 495.29C239.99 491.65 234.26 485.33 230.77 476.35Z" id="eA17wC48q"></path><path d="M270.41 484.36C280.13 475.26 405.02 356.89 405.02 356.89C399.91 355.67 374.36 349.6 328.37 338.67L257.32 382.38L247.97 491.65L247.97 495.29C258.69 491.89 266.17 488.25 270.41 484.36Z" id="adyT92EGJ"></path><path d="M436.43 513.87C457 524.79 471.96 519.33 477.19 495.29C484.56 461.49 543.49 191.09 550.86 157.29C558.34 127.79 539.27 114.68 519.45 123.42C476.22 139.66 130.41 269.62 87.18 285.86C57.64 297.52 58.01 313.54 81.95 320.46C89.35 322.72 126.37 334.01 193 354.34C347.14 259.71 432.77 207.14 449.9 196.63C461.86 189.34 473.08 193.35 464.1 201.36C450.19 213.53 380.64 274.35 255.45 383.84C364.04 461.85 424.37 505.2 436.43 513.87Z" id="b2L3yvsuZ"></path></defs><g><g><g><use xlink:href="#eA17wC48q" opacity="1" fill="#ecb624" fill-opacity="1"></use><g><use xlink:href="#eA17wC48q" opacity="1" fill-opacity="0" stroke="#000000" stroke-width="1" stroke-opacity="0"></use></g></g><g><use xlink:href="#adyT92EGJ" opacity="1" fill="#ecb624" fill-opacity="1"></use><g><use xlink:href="#adyT92EGJ" opacity="1" fill-opacity="0" stroke="#000000" stroke-width="1" stroke-opacity="0"></use></g></g><g><use xlink:href="#b2L3yvsuZ" opacity="1" fill="#ecb624" fill-opacity="1"></use><g><use xlink:href="#b2L3yvsuZ" opacity="1" fill-opacity="0" stroke="#000000" stroke-width="1" stroke-opacity="0"></use></g></g></g></g></svg>