<?xml version="1.0" encoding="UTF-8" standalone="no"?>
<!DOCTYPE svg PUBLIC "-//W3C//DTD SVG 1.1//EN" "http://www.w3.org/Graphics/SVG/1.1/DTD/svg11.dtd">
<svg version="1.1" xmlns="http://www.w3.org/2000/svg" xmlns:xlink="http://www.w3.org/1999/xlink" preserveAspectRatio="xMidYMid meet" viewBox="0 0 640 640" width="640" height="640"><defs><path d="M249.07 452.8C247.04 446.12 236.91 412.69 218.67 352.53L407.47 234.67L429.6 240.53L411.2 290.67L261.33 466.67C255.64 464 251.56 459.38 249.07 452.8Z" id="b5fFZXw2CN"></path><path d="M277.33 458.67C284.27 452 373.33 365.33 373.33 365.33C369.69 364.44 351.47 360 318.67 352L268 384L261.33 464L261.33 466.67C268.98 464.18 274.31 461.51 277.33 458.67Z" id="a5oXoP6vLl"></path><path d="M395.73 480.27C410.4 488.27 421.07 484.27 424.8 466.67C430.05 441.92 472.08 243.95 477.33 219.2C482.67 197.6 469.07 188 454.93 194.4C424.11 206.29 177.49 301.44 146.67 313.33C125.6 321.87 125.87 333.6 142.93 338.67C148.21 340.32 174.61 348.59 222.13 363.47C332.05 294.19 393.12 255.7 405.33 248C413.87 242.67 421.87 245.6 415.47 251.47C405.55 260.37 355.95 304.91 266.67 385.07C344.11 442.19 387.13 473.92 395.73 480.27Z" id="c2DS23SEsX"></path></defs><g><g><g><use xlink:href="#b5fFZXw2CN" opacity="1" fill="#ecb624" fill-opacity="1"></use><g><use xlink:href="#b5fFZXw2CN" opacity="1" fill-opacity="0" stroke="#000000" stroke-width="1" stroke-opacity="0"></use></g></g><g><use xlink:href="#a5oXoP6vLl" opacity="1" fill="#ecb624" fill-opacity="1"></use><g><use xlink:href="#a5oXoP6vLl" opacity="1" fill-opacity="0" stroke="#000000" stroke-width="1" stroke-opacity="0"></use></g></g><g><use xlink:href="#c2DS23SEsX" opacity="1" fill="#ecb624" fill-opacity="1"></use><g><use xlink:href="#c2DS23SEsX" opacity="1" fill-opacity="0" stroke="#000000" stroke-width="1" stroke-opacity="0"></use></g></g></g></g></svg>