<?xml version="1.0" encoding="UTF-8" standalone="no"?>
<!DOCTYPE svg PUBLIC "-//W3C//DTD SVG 1.1//EN" "http://www.w3.org/Graphics/SVG/1.1/DTD/svg11.dtd">
<svg version="1.1" xmlns="http://www.w3.org/2000/svg" xmlns:xlink="http://www.w3.org/1999/xlink" preserveAspectRatio="xMidYMid meet" viewBox="0 0 640 640" width="640" height="640"><defs><path d="M0 320L0 0L640 0L640 640L0 640" id="bZqctH5qG"></path><path d="M140.32 347.2L223.52 347.2L223.52 584L282.56 584L282.56 347.2L365.76 347.2C365.76 331.84 365.76 323.31 365.76 321.6C365.76 307.2 365.76 295.52 365.12 295.2C365.12 294.72 314.4 294.56 252.8 294.56C245.33 294.59 208 294.75 140.8 295.04L140.8 321.28L140.32 321.12L140.32 347.2ZM554.24 317.28C560.16 323.68 568.96 334.88 569.6 337.76C569.6 338.72 541.92 357.44 525.12 367.84C524.48 368.32 521.92 365.6 519.36 361.44C511.04 349.6 502.56 344.48 489.28 343.52C470.08 342.24 457.28 352.32 457.28 369.12C457.28 374.24 458.24 377.12 460.16 381.28C464.48 390.08 472.48 395.36 497.28 406.24C543.04 425.92 562.88 438.88 574.88 457.44C588.48 478.24 591.52 510.88 582.4 535.36C572.16 562.08 547.2 580.16 511.52 586.08C500.32 588 474.72 587.68 462.72 585.6C437.12 580.8 412.64 568 397.6 551.52C391.68 545.12 380.32 528 380.96 526.88C381.37 526.62 383.39 525.34 387.04 523.04L411.04 509.12L429.12 498.56C431.62 501.92 433 503.79 433.28 504.16C438.56 512.48 450.4 523.68 457.28 527.52C478.08 538.24 505.92 536.8 519.68 524.32C525.6 518.88 528.16 513.12 528.16 505.12C528.16 497.76 527.04 494.4 523.36 488.8C518.24 481.76 508 476 479.2 463.2C446.08 449.12 432 440.16 418.88 426.4C411.36 418.08 404.48 405.12 401.28 394.4C398.88 385.12 398.08 362.4 400.32 353.28C407.2 321.28 431.36 298.88 465.92 292.48C477.12 290.24 503.52 291.2 514.56 294.08C514.54 294.1 514.43 294.21 514.24 294.4C533.44 301.87 546.77 309.49 554.24 317.28Z" id="d2fz9p2Fo8"></path></defs><g><g><g><use xlink:href="#bZqctH5qG" opacity="1" fill="#ecb624" fill-opacity="1"></use><g><use xlink:href="#bZqctH5qG" opacity="1" fill-opacity="0" stroke="#000000" stroke-width="1" stroke-opacity="0"></use></g></g><g><use xlink:href="#d2fz9p2Fo8" opacity="1" fill="#252527" fill-opacity="1"></use><g><use xlink:href="#d2fz9p2Fo8" opacity="1" fill-opacity="0" stroke="#000000" stroke-width="1" stroke-opacity="0"></use></g></g></g></g></svg>