<?xml version="1.0" encoding="UTF-8" standalone="no"?>
<!DOCTYPE svg PUBLIC "-//W3C//DTD SVG 1.1//EN" "http://www.w3.org/Graphics/SVG/1.1/DTD/svg11.dtd">
<svg version="1.1" xmlns="http://www.w3.org/2000/svg" xmlns:xlink="http://www.w3.org/1999/xlink" preserveAspectRatio="xMidYMid meet" viewBox="0 0 640 640" width="640" height="640"><defs><path d="M386.33 160.12C390.77 156.56 397.16 151.83 402.11 149.3C429.88 136.2 427.91 147.18 408.78 158.96C460.98 140.28 459.17 164.06 403.96 175.91C449.1 176.76 497.1 205.49 510.91 266.59C512.82 275.05 510.53 274.24 519.19 275.78C537.89 279.09 555.48 278.88 572.63 273.44C570.77 286.08 554.07 294.29 528.02 299.72C518.37 301.73 516.39 301.2 527.96 303.8C542.21 307.01 558.14 307.84 574.99 307.05C561.87 322.15 540.95 329.88 515.07 330.19C498.89 389.29 461.91 431.62 415.1 458.18C305.2 520.56 145.23 511.5 65.01 398.14C117.65 439.45 195.63 448.55 253.55 390.97C215.61 390.98 205.78 362.57 235.86 347.22C207.38 346.93 189.27 337.92 178.64 321.6C174.6 315.41 174.56 314.93 181.14 310.18C188.38 304.95 198.24 302.62 208.43 301.84C178.95 293.4 160.92 277.99 154.68 257.33C152.61 250.5 152.29 250.85 159.24 249.08C166.04 247.36 174.79 246.44 182.63 246.05C159.48 232.01 145.64 214.79 142.12 195.76C138.79 177.8 142.21 182.41 155.67 187.56C215.79 210.56 275.74 235.26 311.23 271.84C327.54 220.91 347.48 187.91 370.43 163.99C387.55 146.13 396.38 140.46 386.33 160.12Z" id="g57w3XOes1"></path></defs><g><g><g><use xlink:href="#g57w3XOes1" opacity="1" fill="#ecb624" fill-opacity="1"></use><g><use xlink:href="#g57w3XOes1" opacity="1" fill-opacity="0" stroke="#000000" stroke-width="1" stroke-opacity="0"></use></g></g></g></g></svg>