<?xml version="1.0" encoding="UTF-8" standalone="no"?>
<!DOCTYPE svg PUBLIC "-//W3C//DTD SVG 1.1//EN" "http://www.w3.org/Graphics/SVG/1.1/DTD/svg11.dtd">
<svg version="1.1" xmlns="http://www.w3.org/2000/svg" xmlns:xlink="http://www.w3.org/1999/xlink" preserveAspectRatio="xMidYMid meet" viewBox="0 0 640 640" width="640" height="640"><defs><path d="M353.16 98.22C311.1 98.22 264.3 115.92 264.3 176.89C264.51 198.14 264.3 218.49 264.3 241.39C261.06 241.39 244.84 241.39 215.64 241.39L215.64 318.83L265.81 318.83L265.81 541.78L358 541.78L358 317.36L418.86 317.36L424.36 241.17C383.59 241.17 360.95 241.17 356.42 241.17C356.42 241.17 356.57 207.28 356.42 197.44C356.42 173.34 381.49 174.72 383 174.72C394.93 174.72 418.13 174.76 424.09 174.72C424.09 169.62 424.09 144.12 424.09 98.22L424.05 98.22C381.52 98.22 357.89 98.22 353.16 98.22Z" id="b1EhtRHRI2"></path></defs><g><g><g><use xlink:href="#b1EhtRHRI2" opacity="1" fill="#ecb624" fill-opacity="1"></use><g><use xlink:href="#b1EhtRHRI2" opacity="1" fill-opacity="0" stroke="#000000" stroke-width="1" stroke-opacity="0"></use></g></g></g></g></svg>