<?xml version="1.0" encoding="UTF-8" standalone="no"?>
<!DOCTYPE svg PUBLIC "-//W3C//DTD SVG 1.1//EN" "http://www.w3.org/Graphics/SVG/1.1/DTD/svg11.dtd">
<svg version="1.1" xmlns="http://www.w3.org/2000/svg" xmlns:xlink="http://www.w3.org/1999/xlink" preserveAspectRatio="xMidYMid meet" viewBox="0 0 640 640" width="640" height="640"><defs><path d="M0 0L640 0L640 640L0 640L0 0Z" id="bnr4dfiyp"></path><path d="M507.5 410.77C487.91 401.76 466.07 395.32 459.56 380.47C457.25 371.83 456.94 366.97 458.4 361.73C462.6 344.76 482.86 339.47 498.92 344.33C509.26 347.8 519.06 355.77 524.96 368.49C552.58 350.6 552.52 350.72 571.8 338.43C564.75 327.48 560.97 322.43 556.35 317.75C539.74 299.19 517.11 289.64 480.91 290.37C474.65 291.16 468.32 292.02 462.05 292.81C443.99 297.37 426.77 306.86 416.67 319.57C386.37 353.95 395.01 414.11 431.88 438.88C468.2 466.13 521.55 472.34 528.37 497.83C535 529.03 505.43 539.13 476.05 535.54C454.39 531.04 442.34 520.03 429.32 500.02C405.35 513.89 405.35 513.89 380.72 528.06C386.56 540.84 392.7 546.62 402.49 557.69C448.85 604.72 564.87 602.4 585.67 531.22C586.52 528.79 592.12 512.49 587.62 487.36C582.94 458.16 563.89 433.64 507.5 410.77ZM288.06 294.14C288.06 345.86 287.82 397.2 287.82 448.91C287.82 481.83 289.52 512 284.17 521.25C275.41 539.44 252.72 537.19 242.37 533.66C231.85 528.49 226.49 521.12 220.29 510.72C218.59 507.74 217.31 505.43 216.88 505.25C200.64 515.16 184.46 525.14 168.21 535.06C176.3 551.67 188.23 566.08 203.5 575.45C226.31 589.14 256.97 593.34 289.03 585.98C309.9 579.89 327.91 567.3 337.34 548.14C350.97 523.01 348.05 492.59 347.92 458.95C348.23 404.08 347.92 349.2 347.92 294.14C335.95 294.14 294.05 294.14 288.06 294.14Z" id="aFw2nj7F"></path></defs><g><g><g><use xlink:href="#bnr4dfiyp" opacity="1" fill="#ecb624" fill-opacity="1"></use><g><use xlink:href="#bnr4dfiyp" opacity="1" fill-opacity="0" stroke="#000000" stroke-width="1" stroke-opacity="0"></use></g></g><g><use xlink:href="#aFw2nj7F" opacity="1" fill="#252527" fill-opacity="1"></use><g><use xlink:href="#aFw2nj7F" opacity="1" fill-opacity="0" stroke="#000000" stroke-width="1" stroke-opacity="0"></use></g></g></g></g></svg>