<?xml version="1.0" encoding="UTF-8" standalone="no"?>
<!DOCTYPE svg PUBLIC "-//W3C//DTD SVG 1.1//EN" "http://www.w3.org/Graphics/SVG/1.1/DTD/svg11.dtd">
<svg version="1.1" xmlns="http://www.w3.org/2000/svg" xmlns:xlink="http://www.w3.org/1999/xlink" preserveAspectRatio="xMidYMid meet" viewBox="0 0 640 640" width="640" height="640"><defs><path d="M436.94 349.19C411.69 350.01 392.14 371.1 392.96 396.24C393.77 408.41 398.66 418.96 405.99 426.26C378.3 480.61 335.95 520.36 272.42 553.62C229.26 576.33 184.46 584.45 139.67 578.77C103.02 573.91 74.52 557.68 56.6 530.91C30.54 491.16 28.09 448.16 50.08 405.17C65.56 374.34 89.99 351.63 105.46 340.28C102.21 329.72 97.32 311.88 94.88 298.91C-23.22 384.08 -11 499.28 24.84 553.62C51.71 594.18 106.28 619.33 166.55 619.33C182.83 619.33 199.12 617.7 215.41 613.65C319.66 593.37 398.66 531.71 443.45 440.05C467.07 437.62 484.99 417.34 484.17 393C483.36 368.66 463 349.19 438.56 349.19C438.4 349.19 437.1 349.19 436.94 349.19ZM276.49 203.18C276.33 203.18 275.03 203.18 274.86 203.18C249.62 203.99 230.07 225.08 230.89 250.23C231.7 274.57 252.06 294.04 276.49 294.04C276.66 294.04 277.96 294.04 278.12 294.04C296.04 293.23 311.51 281.87 318.03 266.46C319.5 266.46 331.22 266.46 332.69 266.46C394.59 266.46 453.22 284.3 506.16 319.18C546.88 345.95 576.2 380.83 592.49 423.01C606.34 457.09 605.52 490.34 590.86 518.74C568.06 561.73 529.78 585.27 479.29 585.27C446.71 585.27 415.76 575.53 399.47 568.22C390.51 576.33 374.22 589.31 362.82 597.43C397.84 613.65 433.68 622.57 467.88 622.57C546.07 622.57 603.89 579.58 625.88 536.58C649.5 489.53 647.87 408.41 586.79 339.46C524.89 267.27 433.68 227.52 329.43 227.52C328.13 227.52 317.71 227.52 316.4 227.52C309.07 212.92 293.6 203.18 276.49 203.18ZM264.28 450.59C263.46 426.26 243.1 406.79 218.67 406.79C218.51 406.79 217.21 406.79 217.04 406.79C215.41 406.79 212.97 406.79 211.34 407.6C177.95 352.44 164.1 292.41 168.99 227.52C172.25 178.84 188.54 136.66 217.04 101.78C240.66 71.77 286.27 57.16 317.22 56.36C403.54 54.73 440.19 161.8 442.64 204.8C453.22 207.24 471.14 212.91 483.36 216.97C473.58 85.55 392.14 17.42 313.96 17.42C240.66 17.42 173.06 70.14 146.18 148.02C108.72 251.86 133.15 351.63 178.76 430.31C174.69 435.99 172.25 444.92 173.06 453.84C173.88 478.18 194.24 497.65 218.67 497.65C218.83 497.65 220.14 497.65 220.3 497.65C245.55 496.83 265.09 475.75 264.28 450.59Z" id="e5fury58pr"></path><path d="M436.94 349.19C411.69 350.01 392.14 371.1 392.96 396.24C393.77 408.41 398.66 418.96 405.99 426.26C378.3 480.61 335.95 520.36 272.42 553.62C229.26 576.33 184.46 584.45 139.67 578.77C103.02 573.91 74.52 557.68 56.6 530.91C30.54 491.16 28.09 448.16 50.08 405.17C65.56 374.34 89.99 351.63 105.46 340.28C102.21 329.72 97.32 311.88 94.88 298.91C-23.22 384.08 -11 499.28 24.84 553.62C51.71 594.18 106.28 619.33 166.55 619.33C182.83 619.33 199.12 617.7 215.41 613.65C319.66 593.37 398.66 531.71 443.45 440.05C467.07 437.62 484.99 417.34 484.17 393C483.36 368.66 463 349.19 438.56 349.19C438.4 349.19 437.1 349.19 436.94 349.19ZM276.49 203.18C276.33 203.18 275.03 203.18 274.86 203.18C249.62 203.99 230.07 225.08 230.89 250.23C231.7 274.57 252.06 294.04 276.49 294.04C276.66 294.04 277.96 294.04 278.12 294.04C296.04 293.23 311.51 281.87 318.03 266.46C319.5 266.46 331.22 266.46 332.69 266.46C394.59 266.46 453.22 284.3 506.16 319.18C546.88 345.95 576.2 380.83 592.49 423.01C606.34 457.09 605.52 490.34 590.86 518.74C568.06 561.73 529.78 585.27 479.29 585.27C446.71 585.27 415.76 575.53 399.47 568.22C390.51 576.33 374.22 589.31 362.82 597.43C397.84 613.65 433.68 622.57 467.88 622.57C546.07 622.57 603.89 579.58 625.88 536.58C649.5 489.53 647.87 408.41 586.79 339.46C524.89 267.27 433.68 227.52 329.43 227.52C328.13 227.52 317.71 227.52 316.4 227.52C309.07 212.92 293.6 203.18 276.49 203.18ZM264.28 450.59C263.46 426.26 243.1 406.79 218.67 406.79C218.51 406.79 217.21 406.79 217.04 406.79C215.41 406.79 212.97 406.79 211.34 407.6C177.95 352.44 164.1 292.41 168.99 227.52C172.25 178.84 188.54 136.66 217.04 101.78C240.66 71.77 286.27 57.16 317.22 56.36C403.54 54.73 440.19 161.8 442.64 204.8C453.22 207.24 471.14 212.91 483.36 216.97C473.58 85.55 392.14 17.42 313.96 17.42C240.66 17.42 173.06 70.14 146.18 148.02C108.72 251.86 133.15 351.63 178.76 430.31C174.69 435.99 172.25 444.92 173.06 453.84C173.88 478.18 194.24 497.65 218.67 497.65C218.83 497.65 220.14 497.65 220.3 497.65C245.55 496.83 265.09 475.75 264.28 450.59Z" id="c2cHpx4CMs"></path><path d="M436.94 349.19C411.69 350.01 392.14 371.1 392.96 396.24C393.77 408.41 398.66 418.96 405.99 426.26C378.3 480.61 335.95 520.36 272.42 553.62C229.26 576.33 184.46 584.45 139.67 578.77C103.02 573.91 74.52 557.68 56.6 530.91C30.54 491.16 28.09 448.16 50.08 405.17C65.56 374.34 89.99 351.63 105.46 340.28C102.21 329.72 97.32 311.88 94.88 298.91C-23.22 384.08 -11 499.28 24.84 553.62C51.71 594.18 106.28 619.33 166.55 619.33C182.83 619.33 199.12 617.7 215.41 613.65C319.66 593.37 398.66 531.71 443.45 440.05C467.07 437.62 484.99 417.34 484.17 393C483.36 368.66 463 349.19 438.56 349.19C438.4 349.19 437.1 349.19 436.94 349.19ZM276.49 203.18C276.33 203.18 275.03 203.18 274.86 203.18C249.62 203.99 230.07 225.08 230.89 250.23C231.7 274.57 252.06 294.04 276.49 294.04C276.66 294.04 277.96 294.04 278.12 294.04C296.04 293.23 311.51 281.87 318.03 266.46C319.5 266.46 331.22 266.46 332.69 266.46C394.59 266.46 453.22 284.3 506.16 319.18C546.88 345.95 576.2 380.83 592.49 423.01C606.34 457.09 605.52 490.34 590.86 518.74C568.06 561.73 529.78 585.27 479.29 585.27C446.71 585.27 415.76 575.53 399.47 568.22C390.51 576.33 374.22 589.31 362.82 597.43C397.84 613.65 433.68 622.57 467.88 622.57C546.07 622.57 603.89 579.58 625.88 536.58C649.5 489.53 647.87 408.41 586.79 339.46C524.89 267.27 433.68 227.52 329.43 227.52C328.13 227.52 317.71 227.52 316.4 227.52C309.07 212.92 293.6 203.18 276.49 203.18ZM264.28 450.59C263.46 426.26 243.1 406.79 218.67 406.79C218.51 406.79 217.21 406.79 217.04 406.79C215.41 406.79 212.97 406.79 211.34 407.6C177.95 352.44 164.1 292.41 168.99 227.52C172.25 178.84 188.54 136.66 217.04 101.78C240.66 71.77 286.27 57.16 317.22 56.36C403.54 54.73 440.19 161.8 442.64 204.8C453.22 207.24 471.14 212.91 483.36 216.97C473.58 85.55 392.14 17.42 313.96 17.42C240.66 17.42 173.06 70.14 146.18 148.02C108.72 251.86 133.15 351.63 178.76 430.31C174.69 435.99 172.25 444.92 173.06 453.84C173.88 478.18 194.24 497.65 218.67 497.65C218.83 497.65 220.14 497.65 220.3 497.65C245.55 496.83 265.09 475.75 264.28 450.59Z" id="fel6Qckdr"></path><path d="M436.94 349.19C411.69 350.01 392.14 371.1 392.96 396.24C393.77 408.41 398.66 418.96 405.99 426.26C378.3 480.61 335.95 520.36 272.42 553.62C229.26 576.33 184.46 584.45 139.67 578.77C103.02 573.91 74.52 557.68 56.6 530.91C30.54 491.16 28.09 448.16 50.08 405.17C65.56 374.34 89.99 351.63 105.46 340.28C102.21 329.72 97.32 311.88 94.88 298.91C-23.22 384.08 -11 499.28 24.84 553.62C51.71 594.18 106.28 619.33 166.55 619.33C182.83 619.33 199.12 617.7 215.41 613.65C319.66 593.37 398.66 531.71 443.45 440.05C467.07 437.62 484.99 417.34 484.17 393C483.36 368.66 463 349.19 438.56 349.19C438.4 349.19 437.1 349.19 436.94 349.19ZM276.49 203.18C276.33 203.18 275.03 203.18 274.86 203.18C249.62 203.99 230.07 225.08 230.89 250.23C231.7 274.57 252.06 294.04 276.49 294.04C276.66 294.04 277.96 294.04 278.12 294.04C296.04 293.23 311.51 281.87 318.03 266.46C319.5 266.46 331.22 266.46 332.69 266.46C394.59 266.46 453.22 284.3 506.16 319.18C546.88 345.95 576.2 380.83 592.49 423.01C606.34 457.09 605.52 490.34 590.86 518.74C568.06 561.73 529.78 585.27 479.29 585.27C446.71 585.27 415.76 575.53 399.47 568.22C390.51 576.33 374.22 589.31 362.82 597.43C397.84 613.65 433.68 622.57 467.88 622.57C546.07 622.57 603.89 579.58 625.88 536.58C649.5 489.53 647.87 408.41 586.79 339.46C524.89 267.27 433.68 227.52 329.43 227.52C328.13 227.52 317.71 227.52 316.4 227.52C309.07 212.92 293.6 203.18 276.49 203.18ZM264.28 450.59C263.46 426.26 243.1 406.79 218.67 406.79C218.51 406.79 217.21 406.79 217.04 406.79C215.41 406.79 212.97 406.79 211.34 407.6C177.95 352.44 164.1 292.41 168.99 227.52C172.25 178.84 188.54 136.66 217.04 101.78C240.66 71.77 286.27 57.16 317.22 56.36C403.54 54.73 440.19 161.8 442.64 204.8C453.22 207.24 471.14 212.91 483.36 216.97C473.58 85.55 392.14 17.42 313.96 17.42C240.66 17.42 173.06 70.14 146.18 148.02C108.72 251.86 133.15 351.63 178.76 430.31C174.69 435.99 172.25 444.92 173.06 453.84C173.88 478.18 194.24 497.65 218.67 497.65C218.83 497.65 220.14 497.65 220.3 497.65C245.55 496.83 265.09 475.75 264.28 450.59Z" id="b9QMI93uTS"></path></defs><g><g><g><use xlink:href="#e5fury58pr" opacity="1" fill="#ecb624" fill-opacity="1"></use><g><use xlink:href="#e5fury58pr" opacity="1" fill-opacity="0" stroke="#000000" stroke-width="1" stroke-opacity="0"></use></g></g><g><use xlink:href="#c2cHpx4CMs" opacity="1" fill="#000000" fill-opacity="0"></use><g><use xlink:href="#c2cHpx4CMs" opacity="1" fill-opacity="0" stroke="#000000" stroke-width="1" stroke-opacity="0"></use></g></g><g><use xlink:href="#fel6Qckdr" opacity="1" fill="#000000" fill-opacity="0"></use><g><use xlink:href="#fel6Qckdr" opacity="1" fill-opacity="0" stroke="#000000" stroke-width="1" stroke-opacity="0"></use></g></g><g><use xlink:href="#b9QMI93uTS" opacity="1" fill="#000000" fill-opacity="0"></use><g><use xlink:href="#b9QMI93uTS" opacity="1" fill-opacity="0" stroke="#000000" stroke-width="1" stroke-opacity="0"></use></g></g></g></g></svg>