<?xml version="1.0" encoding="UTF-8" standalone="no"?>
<!DOCTYPE svg PUBLIC "-//W3C//DTD SVG 1.1//EN" "http://www.w3.org/Graphics/SVG/1.1/DTD/svg11.dtd">
<svg version="1.1" xmlns="http://www.w3.org/2000/svg" xmlns:xlink="http://www.w3.org/1999/xlink" preserveAspectRatio="xMidYMid meet" viewBox="0 0 640 640" width="640" height="640"><defs><path d="M500.59 209.11C496.16 209.11 460.67 209.11 456.24 209.11C444.83 209.11 439.76 215.13 436.91 221.78C436.91 221.78 414.42 276.91 382.42 312.4C371.96 322.85 367.52 326.02 361.82 326.02C358.97 326.02 354.85 322.85 354.85 313.35C354.85 304.54 354.85 234.08 354.85 225.27C354.85 213.86 351.68 209.11 342.18 209.11C335.21 209.11 279.45 209.11 272.48 209.11C265.5 209.11 261.07 214.5 261.07 219.25C261.07 230.02 276.91 232.55 278.81 262.34C278.81 268.86 278.81 321.08 278.81 327.6C278.81 341.86 276.28 344.4 270.57 344.4C255.68 344.4 218.93 289.27 197.39 225.9C192.95 214.18 188.83 209.11 177.43 209.11C172.99 209.11 137.5 209.11 133.07 209.11C120.4 209.11 117.86 215.13 117.86 221.78C117.86 233.5 132.75 291.8 187.88 368.79C224.63 421.39 276.28 449.9 323.17 449.9C351.37 449.9 354.85 443.56 354.85 432.79C354.85 428.8 354.85 396.86 354.85 392.87C354.85 380.2 357.39 377.66 366.57 377.66C373.23 377.66 384.32 380.83 410.61 406.18C440.71 436.28 445.78 449.9 462.57 449.9C467.01 449.9 502.5 449.9 506.93 449.9C519.6 449.9 525.94 443.56 522.14 431.21C518.02 418.85 503.76 400.79 484.75 379.25C474.3 366.89 458.77 353.9 454.34 347.25C447.68 338.69 449.58 334.89 454.34 327.6C454.34 327.29 508.51 251.25 513.9 225.27C516.75 215.76 513.9 209.11 500.59 209.11Z" id="fuPwSSs2E"></path></defs><g><g><g><use xlink:href="#fuPwSSs2E" opacity="1" fill="#ecb624" fill-opacity="1"></use><g><use xlink:href="#fuPwSSs2E" opacity="1" fill-opacity="0" stroke="#000000" stroke-width="1" stroke-opacity="0"></use></g></g></g></g></svg>